<?xml version="1.0" encoding="UTF-8"?>
<svg width="891px" height="891px" viewBox="0 0 891 891" version="1.1" xmlns="http://www.w3.org/2000/svg" xmlns:xlink="http://www.w3.org/1999/xlink">
    <title>charity</title>
    <g id="charity" stroke="none" stroke-width="1" fill="none" fill-rule="evenodd">
        <path d="M311.009425,177 C270.347307,177.40656 233.568462,194.164504 206.967671,221.033038 C180.411333,247.856672 164,284.758502 164,325.529952 C164,375.728638 186.126931,446.883907 228.925474,505.459223 C302.312898,605.900908 418.488272,695.233833 444.997822,715 C471.511726,695.233837 587.687097,605.900914 661.074485,505.459279 C703.873068,446.883907 726,375.728638 726,325.529952 C726,284.758502 709.588664,247.856672 683.032328,221.033038 C656.411323,194.144087 619.594845,177.406784 577.600946,177 C525.46733,177.016871 479.410755,204.663931 452.892998,245.405344 C450.028227,249.80673 447.395383,254.35496 445.004355,259.027092 C442.609293,254.363593 439.974537,249.810976 437.106999,245.405344 C410.571768,204.637079 364.469133,177.016854 311.009425,177 Z" id="Path" fill="#B50E0E"></path>
        <rect id="Rectangle" stroke="#181B1C" stroke-width="7" fill="#FFFFFF" x="147" y="373" width="600" height="152"></rect>
        <text id="COVID-19" font-family="Inter-Bold, Inter" font-size="120" font-weight="bold" letter-spacing="-3.15667718" fill="#B50E0E">
            <tspan x="166.328413" y="493">COVID-19</tspan>
        </text>
    </g>
</svg>