<?xml version="1.0" encoding="UTF-8"?>
<svg width="578px" height="172px" viewBox="0 0 578 172" version="1.1" xmlns="http://www.w3.org/2000/svg" xmlns:xlink="http://www.w3.org/1999/xlink">
    <!-- Generator: Sketch 63.1 (92452) - https://sketch.com -->
    <title>logo copy 3</title>
    <desc>Created with Sketch.</desc>
    <g id="logo-copy-3" stroke="none" stroke-width="1" fill="none" fill-rule="evenodd">
        <path d="M53.8970448,127.810934 L53.8970448,91.2669704 C53.8970448,84.5289294 58.1808027,80.0501139 63.813151,80.0501139 C69.3661704,80.0501139 73.0946263,83.8551253 73.0946263,89.8400911 L73.0946263,127.810934 L89.4760336,127.810934 L89.4760336,90.6328018 C89.4760336,84.3307517 93.0854963,80.0501139 99.2334821,80.0501139 C104.627844,80.0501139 108.673615,83.4191344 108.673615,90.1968109 L108.673615,127.810934 L125.530996,127.810934 L125.530996,86.867426 C125.530996,73.6687927 117.677439,66.138041 106.333414,66.138041 C97.4089185,66.138041 90.4676442,70.6961276 87.9687855,77.6719818 L87.3341547,77.6719818 C85.3905979,70.6168565 79.1632833,66.138041 70.7940897,66.138041 C62.5835538,66.138041 56.3562392,70.4979499 53.817716,77.6719818 L53.1037564,77.6719818 L53.1037564,66.9307517 L37,66.9307517 L37,127.810934 L53.8970448,127.810934 Z M143.357415,59.0829157 C148.394796,59.0829157 152.519897,55.2382688 152.519897,50.5216401 C152.519897,45.8446469 148.394796,42 143.357415,42 C138.359697,42 134.234597,45.8446469 134.234597,50.5216401 C134.234597,55.2382688 138.359697,59.0829157 143.357415,59.0829157 Z M151.766272,127.810934 L151.766272,66.9307517 L134.869228,66.9307517 L134.869228,127.810934 L151.766272,127.810934 Z M188.790205,129 C205.012954,129 215.206712,119.487472 216,105.496128 L200.054901,105.496128 C199.063291,111.996355 194.779533,115.642825 188.988527,115.642825 C181.095306,115.642825 175.978596,109.02369 175.978596,97.3708428 C175.978596,85.8765376 181.134971,79.2970387 188.988527,79.2970387 C195.176177,79.2970387 199.14262,83.3794989 200.054901,89.4437358 L216,89.4437358 C215.28604,75.3731207 204.61631,66.138041 188.710876,66.138041 C170.227254,66.138041 158.8039,78.9403189 158.8039,97.608656 C158.8039,116.118451 170.028932,129 188.790205,129 Z" id="mic" fill="#FFFFFF" fill-rule="nonzero"></path>
        <path d="M278.54334,60 L278.543,118.394 L304.531406,92.4057808 L315.812813,103.687187 L270.312813,149.187187 L225.187187,104.061562 L236.562187,92.6865615 L262.456,118.581 L262.45666,60 L278.54334,60 Z" id="Combined-Shape" fill="#990000"></path>
        <path d="M270,29 C289.882251,29 306,45.1288838 306,65.0248702 C306,80.7101015 295.982594,94.0540259 282.000597,98.9996456 L282.000454,85.8281968 C289.17382,81.6755524 294,73.914208 294,65.0248702 C294,51.7608792 283.254834,41.0082901 270,41.0082901 C256.745166,41.0082901 246,51.7608792 246,65.0248702 C246,73.9146187 250.826626,81.6762695 258.00054,85.8287723 L258.000405,99 C244.017885,94.0546634 234,80.7104762 234,65.0248702 C234,45.1288838 250.117749,29 270,29 Z" id="Combined-Shape" fill="#FFFFFF" fill-rule="nonzero"></path>
        <path d="M346.778385,130.448785 C356.642012,130.448785 361.772689,124.76129 364.119278,119.670386 L364.835186,119.670386 L364.835186,129.454468 L381.539716,129.454468 L381.539716,48 L364.636323,48 L364.636323,78.6249708 L364.119278,78.6249708 C361.852235,73.6533846 356.960194,67.5681632 346.738613,67.5681632 C333.335216,67.5681632 322,77.9886078 322,98.9885877 C322,119.43175 332.857944,130.448785 346.778385,130.448785 Z M352.147699,116.965843 C343.835206,116.965843 339.30112,109.568123 339.30112,98.9090424 C339.30112,88.329507 343.755661,81.0511048 352.147699,81.0511048 C360.380645,81.0511048 364.994277,88.0113255 364.994277,98.9090424 C364.994277,109.806759 360.3011,116.965843 352.147699,116.965843 Z M408.363618,129.454468 L408.363618,94.8920007 C408.363618,87.3749624 413.852249,82.2045128 421.329515,82.2045128 C423.676103,82.2045128 426.897691,82.6022397 428.488599,83.1192847 L428.488599,68.0852081 C426.977237,67.7272539 424.869284,67.4886178 423.159058,67.4886178 C416.318156,67.4886178 410.710207,71.4658867 408.482936,79.0226977 L407.846573,79.0226977 L407.846573,68.3636169 L391.420452,68.3636169 L391.420452,129.454468 L408.363618,129.454468 Z M457.937472,130.647648 C476.471545,130.647648 488.005625,117.960161 488.005625,99.1476785 C488.005625,80.2158784 476.471545,67.5681632 457.937472,67.5681632 C439.403398,67.5681632 427.869318,80.2158784 427.869318,99.1476785 C427.869318,117.960161 439.403398,130.647648 457.937472,130.647648 Z M458.017017,117.522661 C449.465889,117.522661 445.090893,109.687441 445.090893,99.0283604 C445.090893,88.3692797 449.465889,80.4942872 458.017017,80.4942872 C466.409054,80.4942872 470.78405,88.3692797 470.78405,99.0283604 C470.78405,109.687441 466.409054,117.522661 458.017017,117.522661 Z M512.005663,152.363537 L512.005663,119.670386 L512.522708,119.670386 C514.869297,124.76129 519.999974,130.448785 529.863601,130.448785 C543.784042,130.448785 554.641986,119.43175 554.641986,98.9885877 C554.641986,77.9886078 543.30677,67.5681632 529.903374,67.5681632 C519.681793,67.5681632 514.789752,73.6533846 512.522708,78.6249708 L511.767027,78.6249708 L511.767027,68.3636169 L495.062498,68.3636169 L495.062498,152.363537 L512.005663,152.363537 Z M524.494288,116.965843 C516.340887,116.965843 511.647709,109.806759 511.647709,98.9090424 C511.647709,88.0113255 516.261341,81.0511048 524.494288,81.0511048 C532.886325,81.0511048 537.340867,88.329507 537.340867,98.9090424 C537.340867,109.568123 532.80678,116.965843 524.494288,116.965843 Z" id="drop" fill="#990000" fill-rule="nonzero"></path>
    </g>
</svg>