<?xml version="1.0" encoding="UTF-8"?>
<svg width="320px" height="307px" viewBox="0 0 320 307" version="1.1" xmlns="http://www.w3.org/2000/svg" xmlns:xlink="http://www.w3.org/1999/xlink">
    <!-- Generator: Sketch 63.1 (92452) - https://sketch.com -->
    <title>logotype</title>
    <desc>Created with Sketch.</desc>
    <g id="logotype" stroke="none" stroke-width="1" fill="none" fill-rule="evenodd">
        <rect id="Rectangle" fill="#990000" x="207" y="274" width="70" height="8"></rect>
        <path d="M49.8288201,279.502839 L47.5745609,276.562501 C49.3060934,275.1005 50.3678821,272.715559 50.3678821,269.636372 C50.3678821,264.28659 47.1661806,261.04405 42.8373495,261.04405 C38.4921832,261.04405 35.2986493,264.28659 35.2986493,269.636372 C35.2986493,274.977986 38.4921832,278.228693 42.8373495,278.228693 C43.9154735,278.228693 44.920089,278.03267 45.8185257,277.648793 L47.2478567,279.502839 L49.8288201,279.502839 Z M42.8373495,275.925428 C39.9541847,275.925428 37.8061043,273.712007 37.8061043,269.636372 C37.8061043,265.560736 39.9541847,263.347315 42.8373495,263.347315 C45.7123468,263.347315 47.8685947,265.560736 47.8685947,269.636372 C47.8685947,271.923301 47.1906834,273.630331 46.079889,274.675784 L44.4708707,272.57671 L41.9879185,272.57671 L44.3646918,275.696735 C43.8909707,275.85192 43.3764115,275.925428 42.8373495,275.925428 Z M56.949094,278.163352 C58.835811,278.163352 60.1181251,277.166904 60.6980251,275.827417 L60.8287068,275.827417 L60.8287068,278 L63.2299829,278 L63.2299829,265.454557 L60.7797012,265.454557 L60.7797012,272.797235 C60.7878688,274.92898 59.2033532,275.941763 57.8311955,275.941763 C56.3201884,275.941763 55.2747348,274.847304 55.2747348,273.140275 L55.2747348,265.454557 L52.8326207,265.454557 L52.8326207,273.434308 C52.8326207,276.546166 54.5396503,278.163352 56.949094,278.163352 Z M67.2547304,263.518835 C68.0959938,263.518835 68.7984079,262.865426 68.7984079,262.065001 C68.7984079,261.264576 68.0959938,260.603 67.2547304,260.603 C66.4052994,260.603 65.7110529,261.264576 65.7110529,262.065001 C65.7110529,262.865426 66.4052994,263.518835 67.2547304,263.518835 Z M68.4635361,278 L68.4635361,265.454557 L66.0214219,265.454557 L66.0214219,278 L68.4635361,278 Z M76.6700901,278.253196 C79.4062381,278.253196 81.3419607,276.905541 81.8973579,274.863639 L79.5859254,274.447091 C79.1448747,275.631394 78.083086,276.235797 76.694593,276.235797 C74.6036859,276.235797 73.1988577,274.879975 73.1335168,272.462363 L82.0525424,272.462363 L82.0525424,271.596597 C82.0525424,267.063576 79.3408973,265.291205 76.4985704,265.291205 C73.0028351,265.291205 70.6995703,267.953845 70.6995703,271.808955 C70.6995703,275.704903 72.9701647,278.253196 76.6700901,278.253196 Z M79.6594339,270.63282 L73.1416844,270.63282 C73.2396957,268.852281 74.5301774,267.308604 76.5149056,267.308604 C78.4097902,267.308604 79.6512663,268.713432 79.6594339,270.63282 Z M88.7889348,278.163352 C89.5648574,278.155185 90.0875842,278.008168 90.3734504,277.901989 L89.9323997,275.88459 C89.7690475,275.917261 89.4668461,275.990769 89.0748011,275.990769 C88.2825433,275.990769 87.5719616,275.729406 87.5719616,274.31641 L87.5719616,267.414783 L90.1447574,267.414783 L90.1447574,265.454557 L87.5719616,265.454557 L87.5719616,262.448878 L85.1298474,262.448878 L85.1298474,265.454557 L83.2921361,265.454557 L83.2921361,267.414783 L85.1298474,267.414783 L85.1298474,274.822801 C85.1216798,277.101563 86.8613799,278.20419 88.7889348,278.163352 Z M97.6325648,278.253196 C100.368713,278.253196 102.304435,276.905541 102.859832,274.863639 L100.5484,274.447091 C100.107349,275.631394 99.0455606,276.235797 97.6570676,276.235797 C95.5661605,276.235797 94.1613323,274.879975 94.0959914,272.462363 L103.015017,272.462363 L103.015017,271.596597 C103.015017,267.063576 100.303372,265.291205 97.461045,265.291205 C93.9653097,265.291205 91.6620449,267.953845 91.6620449,271.808955 C91.6620449,275.704903 93.9326393,278.253196 97.6325648,278.253196 Z M100.621908,270.63282 L94.104159,270.63282 C94.2021703,268.852281 95.492652,267.308604 97.4773802,267.308604 C99.3722648,267.308604 100.613741,268.713432 100.621908,270.63282 Z M107.693173,278 L107.693173,270.338786 C107.693173,268.697097 108.959152,267.512794 110.690684,267.512794 C111.197076,267.512794 111.768808,267.602638 111.964831,267.659811 L111.964831,265.323876 C111.719802,265.291205 111.237914,265.266702 110.927545,265.266702 C109.457376,265.266702 108.199564,266.099798 107.742178,267.447453 L107.611497,267.447453 L107.611497,265.454557 L105.251059,265.454557 L105.251059,278 L107.693173,278 Z M113.776151,278.155185 C114.66642,278.155185 115.409672,277.428268 115.409672,276.521663 C115.409672,275.631394 114.66642,274.89631 113.776151,274.89631 C112.877714,274.89631 112.14263,275.631394 112.14263,276.521663 C112.14263,277.428268 112.877714,278.155185 113.776151,278.155185 Z M130.720154,278.228693 C134.395577,278.228693 137.082719,275.925428 137.629949,272.617548 L135.081656,272.60938 C134.648773,274.749293 132.851899,275.925428 130.73649,275.925428 C127.86966,275.925428 125.705244,273.728342 125.705244,269.636372 C125.705244,265.577072 127.861492,263.347315 130.744657,263.347315 C132.876402,263.347315 134.665108,264.547953 135.081656,266.712369 L137.629949,266.712369 C137.058216,263.134957 134.256728,261.04405 130.720154,261.04405 C126.391323,261.04405 123.197789,264.28659 123.197789,269.636372 C123.197789,274.986153 126.374988,278.228693 130.720154,278.228693 Z M143.623092,278.277699 C145.697664,278.277699 146.865632,277.224077 147.331186,276.284803 L147.429197,276.284803 L147.429197,278 L149.814138,278 L149.814138,269.669042 C149.814138,266.018122 146.93914,265.291205 144.946245,265.291205 C142.67565,265.291205 140.584743,266.205977 139.767982,268.492907 L142.06308,269.015634 C142.422454,268.125365 143.337226,267.267766 144.978915,267.267766 C146.555263,267.267766 147.363856,268.092694 147.363856,269.513858 L147.363856,269.571031 C147.363856,270.4613 146.449084,270.444965 144.194825,270.706328 C141.818052,270.984027 139.384105,271.604765 139.384105,274.455259 C139.384105,276.921876 141.238152,278.277699 143.623092,278.277699 Z M144.153987,276.317473 C142.773661,276.317473 141.777214,275.696735 141.777214,274.487929 C141.777214,273.181113 142.937014,272.715559 144.350009,272.527704 C145.142267,272.421525 147.020816,272.209167 147.372024,271.85796 L147.372024,273.475146 C147.372024,274.961651 146.187721,276.317473 144.153987,276.317473 Z M155.023187,278 L155.023187,261.272743 L152.581073,261.272743 L152.581073,278 L155.023187,278 Z M160.264901,278 L160.264901,270.265277 C160.264901,268.574583 161.449203,267.398448 162.837696,267.398448 C164.193519,267.398448 165.132794,268.296884 165.132794,269.660874 L165.132794,278 L167.56674,278 L167.56674,270.003914 C167.56674,268.492907 168.48968,267.398448 170.082363,267.398448 C171.372845,267.398448 172.434633,268.117197 172.434633,269.816059 L172.434633,278 L174.876747,278 L174.876747,269.587366 C174.876747,266.720536 173.275897,265.291205 171.005302,265.291205 C169.200261,265.291205 167.844439,266.156972 167.240036,267.496459 L167.109354,267.496459 C166.562125,266.124301 165.410492,265.291205 163.736133,265.291205 C162.078109,265.291205 160.844801,266.116133 160.322074,267.496459 L160.166889,267.496459 L160.166889,265.454557 L157.822786,265.454557 L157.822786,278 L160.264901,278 Z M183.06698,278.253196 C185.803128,278.253196 187.738851,276.905541 188.294248,274.863639 L185.982816,274.447091 C185.541765,275.631394 184.479976,276.235797 183.091483,276.235797 C181.000576,276.235797 179.595748,274.879975 179.530407,272.462363 L188.449433,272.462363 L188.449433,271.596597 C188.449433,267.063576 185.737787,265.291205 182.895461,265.291205 C179.399725,265.291205 177.09646,267.953845 177.09646,271.808955 C177.09646,275.704903 179.367055,278.253196 183.06698,278.253196 Z M186.056324,270.63282 L179.538575,270.63282 C179.636586,268.852281 180.927068,267.308604 182.911796,267.308604 C184.80668,267.308604 186.048156,268.713432 186.056324,270.63282 Z M193.127588,278 L193.127588,270.338786 C193.127588,268.697097 194.393567,267.512794 196.1251,267.512794 C196.631491,267.512794 197.203224,267.602638 197.399246,267.659811 L197.399246,265.323876 C197.154218,265.291205 196.672329,265.266702 196.36196,265.266702 C194.891791,265.266702 193.63398,266.099798 193.176594,267.447453 L193.045912,267.447453 L193.045912,265.454557 L190.685474,265.454557 L190.685474,278 L193.127588,278 Z M199.210566,278.155185 C200.100835,278.155185 200.844088,277.428268 200.844088,276.521663 C200.844088,275.631394 200.100835,274.89631 199.210566,274.89631 C198.31213,274.89631 197.577045,275.631394 197.577045,276.521663 C197.577045,277.428268 198.31213,278.155185 199.210566,278.155185 Z M215.582837,278 C219.470618,278 221.226653,276.064277 221.226653,273.499649 C221.226653,270.910518 219.413445,269.448517 217.755421,269.358673 L217.755421,269.195321 C219.29093,268.803276 220.573245,267.757822 220.573245,265.666915 C220.573245,263.192131 218.858047,261.272743 215.296971,261.272743 L209.171267,261.272743 L209.171267,278 L215.582837,278 Z M215.076446,268.509242 L211.695057,268.509242 L211.695057,263.420824 L215.141787,263.420824 C217.14285,263.420824 218.09846,264.474445 218.09846,265.862938 C218.09846,267.480124 216.775308,268.509242 215.076446,268.509242 Z M215.337809,275.835584 L211.695057,275.835584 L211.695057,270.477635 L215.427653,270.477635 C217.453219,270.477635 218.719198,271.784452 218.719198,273.377135 C218.719198,274.781963 217.763588,275.835584 215.337809,275.835584 Z M228.94316,278.253196 C231.679308,278.253196 233.61503,276.905541 234.170427,274.863639 L231.858995,274.447091 C231.417944,275.631394 230.356155,276.235797 228.967663,276.235797 C226.876755,276.235797 225.471927,274.879975 225.406586,272.462363 L234.325612,272.462363 L234.325612,271.596597 C234.325612,267.063576 231.613967,265.291205 228.77164,265.291205 C225.275905,265.291205 222.97264,267.953845 222.97264,271.808955 C222.97264,275.704903 225.243234,278.253196 228.94316,278.253196 Z M231.932503,270.63282 L225.414754,270.63282 C225.512765,268.852281 226.803247,267.308604 228.787975,267.308604 C230.68286,267.308604 231.924336,268.713432 231.932503,270.63282 Z M241.062004,278.163352 C241.837927,278.155185 242.360654,278.008168 242.64652,277.901989 L242.205469,275.88459 C242.042117,275.917261 241.739916,275.990769 241.347871,275.990769 C240.555613,275.990769 239.845031,275.729406 239.845031,274.31641 L239.845031,267.414783 L242.417827,267.414783 L242.417827,265.454557 L239.845031,265.454557 L239.845031,262.448878 L237.402917,262.448878 L237.402917,265.454557 L235.565206,265.454557 L235.565206,267.414783 L237.402917,267.414783 L237.402917,274.822801 C237.394749,277.101563 239.134449,278.20419 241.062004,278.163352 Z M249.129712,278.163352 C249.905634,278.155185 250.428361,278.008168 250.714227,277.901989 L250.273177,275.88459 C250.109825,275.917261 249.807623,275.990769 249.415578,275.990769 C248.62332,275.990769 247.912739,275.729406 247.912739,274.31641 L247.912739,267.414783 L250.485534,267.414783 L250.485534,265.454557 L247.912739,265.454557 L247.912739,262.448878 L245.470624,262.448878 L245.470624,265.454557 L243.632913,265.454557 L243.632913,267.414783 L245.470624,267.414783 L245.470624,274.822801 C245.462457,277.101563 247.202157,278.20419 249.129712,278.163352 Z M257.973342,278.253196 C260.70949,278.253196 262.645212,276.905541 263.20061,274.863639 L260.889177,274.447091 C260.448126,275.631394 259.386338,276.235797 257.997845,276.235797 C255.906937,276.235797 254.502109,274.879975 254.436768,272.462363 L263.355794,272.462363 L263.355794,271.596597 C263.355794,267.063576 260.644149,265.291205 257.801822,265.291205 C254.306087,265.291205 252.002822,267.953845 252.002822,271.808955 C252.002822,275.704903 254.273416,278.253196 257.973342,278.253196 Z M260.962686,270.63282 L254.444936,270.63282 C254.542947,268.852281 255.833429,267.308604 257.818157,267.308604 C259.713042,267.308604 260.954518,268.713432 260.962686,270.63282 Z M268.03395,278 L268.03395,270.338786 C268.03395,268.697097 269.299929,267.512794 271.031461,267.512794 C271.537853,267.512794 272.109585,267.602638 272.305608,267.659811 L272.305608,265.323876 C272.060579,265.291205 271.578691,265.266702 271.268322,265.266702 C269.798153,265.266702 268.540341,266.099798 268.082955,267.447453 L267.952274,267.447453 L267.952274,265.454557 L265.591836,265.454557 L265.591836,278 L268.03395,278 Z M274.116928,278.155185 C275.007197,278.155185 275.750449,277.428268 275.750449,276.521663 C275.750449,275.631394 275.007197,274.89631 274.116928,274.89631 C273.218491,274.89631 272.483407,275.631394 272.483407,276.521663 C272.483407,277.428268 273.218491,278.155185 274.116928,278.155185 Z" id="Quieter.Calmer.Better." fill="#FFFFFF" fill-rule="nonzero"></path>
        <path d="M60.4573584,229.994317 C70.3209854,229.994317 75.4516623,224.306823 77.798251,219.215918 L78.5141594,219.215918 L78.5141594,229 L95.2186889,229 L95.2186889,147.545532 L78.315296,147.545532 L78.315296,178.170503 L77.798251,178.170503 C75.5312077,173.198917 70.6391669,167.113695 60.4175858,167.113695 C47.0141894,167.113695 35.678973,177.53414 35.678973,198.53412 C35.678973,218.977282 46.5369172,229.994317 60.4573584,229.994317 Z M65.8266715,216.511376 C57.5141794,216.511376 52.9800929,209.113655 52.9800929,198.454575 C52.9800929,187.875039 57.4346341,180.596637 65.8266715,180.596637 C74.0596182,180.596637 78.6732502,187.556858 78.6732502,198.454575 C78.6732502,209.352291 73.9800728,216.511376 65.8266715,216.511376 Z M122.042591,229 L122.042591,194.437533 C122.042591,186.920495 127.531222,181.750045 135.008488,181.750045 C137.355076,181.750045 140.576664,182.147772 142.167572,182.664817 L142.167572,167.63074 C140.65621,167.272786 138.548257,167.03415 136.838031,167.03415 C129.997129,167.03415 124.38918,171.011419 122.161909,178.56823 L121.525546,178.56823 L121.525546,167.909149 L105.099425,167.909149 L105.099425,229 L122.042591,229 Z M171.616445,230.193181 C190.150518,230.193181 201.684598,217.505693 201.684598,198.693211 C201.684598,179.761411 190.150518,167.113695 171.616445,167.113695 C153.082371,167.113695 141.548291,179.761411 141.548291,198.693211 C141.548291,217.505693 153.082371,230.193181 171.616445,230.193181 Z M171.69599,217.068193 C163.144862,217.068193 158.769866,209.232973 158.769866,198.573893 C158.769866,187.914812 163.144862,180.039819 171.69599,180.039819 C180.088027,180.039819 184.463023,187.914812 184.463023,198.573893 C184.463023,209.232973 180.088027,217.068193 171.69599,217.068193 Z M225.684636,251.909069 L225.684636,219.215918 L226.201681,219.215918 C228.54827,224.306823 233.678947,229.994317 243.542574,229.994317 C257.463015,229.994317 268.320959,218.977282 268.320959,198.53412 C268.320959,177.53414 256.985743,167.113695 243.582347,167.113695 C233.360766,167.113695 228.468725,173.198917 226.201681,178.170503 L225.446,178.170503 L225.446,167.909149 L208.741471,167.909149 L208.741471,251.909069 L225.684636,251.909069 Z M238.173261,216.511376 C230.01986,216.511376 225.326682,209.352291 225.326682,198.454575 C225.326682,187.556858 229.940314,180.596637 238.173261,180.596637 C246.565298,180.596637 251.01984,187.875039 251.01984,198.454575 C251.01984,209.113655 246.485753,216.511376 238.173261,216.511376 Z" id="drop" fill="#990000" fill-rule="nonzero"></path>
        <path d="M122.011341,161 L122.011341,124.32958 C122.011341,117.568223 126.306791,113.073909 131.954513,113.073909 C137.52269,113.073909 141.261323,116.892088 141.261323,122.897764 L141.261323,161 L157.687443,161 L157.687443,123.693217 C157.687443,117.36936 161.306758,113.073909 167.471525,113.073909 C172.880611,113.073909 176.937425,116.454588 176.937425,123.255718 L176.937425,161 L193.840818,161 L193.840818,119.914812 C193.840818,106.670506 185.965825,99.1136954 174.590836,99.1136954 C165.641981,99.1136954 158.681761,103.687555 156.176081,110.687548 L155.539718,110.687548 C153.590856,103.608009 147.346544,99.1136954 138.954507,99.1136954 C130.72156,99.1136954 124.477248,103.488691 121.931796,110.687548 L121.215887,110.687548 L121.215887,99.9091492 L105.068175,99.9091492 L105.068175,161 L122.011341,161 Z M211.715895,92.0341567 C216.767026,92.0341567 220.903386,88.1762058 220.903386,83.4432558 C220.903386,78.7500784 216.767026,74.8921276 211.715895,74.8921276 C206.704536,74.8921276 202.568176,78.7500784 202.568176,83.4432558 C202.568176,88.1762058 206.704536,92.0341567 211.715895,92.0341567 Z M220.147705,161 L220.147705,99.9091492 L203.204539,99.9091492 L203.204539,161 L220.147705,161 Z M257.272695,162.193181 C273.539724,162.193181 283.761306,152.647735 284.556759,138.607976 L268.568138,138.607976 C267.573821,145.130697 263.278371,148.789784 257.471558,148.789784 C249.556793,148.789784 244.426116,142.147745 244.426116,130.454575 C244.426116,118.920495 249.596565,112.318228 257.471558,112.318228 C263.676097,112.318228 267.653366,116.414815 268.568138,122.500037 L284.556759,122.500037 C283.840851,108.380732 273.141998,99.1136954 257.193149,99.1136954 C238.659076,99.1136954 227.204541,111.960274 227.204541,130.693211 C227.204541,149.267057 238.460212,162.193181 257.272695,162.193181 Z" id="mic" fill="#FFFFFF" fill-rule="nonzero"></path>
        <path d="M51.254834,33 C71.137085,33 87.254834,49.117749 87.254834,69 C87.254834,84.6744028 77.2374276,98.0091151 63.255431,102.951321 L63.2552877,89.7889648 C70.428654,85.6391872 75.254834,77.883201 75.254834,69 C75.254834,55.745166 64.509668,45 51.254834,45 C38,45 27.254834,55.745166 27.254834,69 C27.254834,77.8836113 32.0814599,85.6399038 39.2553744,89.7895399 L39.255239,102.951675 C25.272719,98.0097521 15.254834,84.6747773 15.254834,69 C15.254834,49.117749 31.372583,33 51.254834,33 Z" id="Combined-Shape" fill="#FFFFFF" fill-rule="nonzero"></path>
        <path d="M59.254834,64 L59.254,122.627 L85.1959595,96.6862915 L96.509668,108 L51.254834,153.254834 L6,108 L17.3137085,96.6862915 L43.254,122.627 L43.254834,64 L59.254834,64 Z" id="Combined-Shape" fill="#990000"></path>
    </g>
</svg>