<?xml version="1.0" encoding="UTF-8"?>
<svg width="488px" height="192px" viewBox="0 0 488 192" version="1.1" xmlns="http://www.w3.org/2000/svg" xmlns:xlink="http://www.w3.org/1999/xlink">
    <!-- Generator: Sketch 64 (93537) - https://sketch.com -->
    <title>logotype-dark</title>
    <desc>Created with Sketch.</desc>
    <defs>
        <filter x="-2.7%" y="-8.3%" width="105.4%" height="120.7%" filterUnits="objectBoundingBox" id="filter-1">
            <feOffset dx="0" dy="2" in="SourceAlpha" result="shadowOffsetOuter1"></feOffset>
            <feGaussianBlur stdDeviation="2" in="shadowOffsetOuter1" result="shadowBlurOuter1"></feGaussianBlur>
            <feColorMatrix values="0 0 0 0 0   0 0 0 0 0   0 0 0 0 0  0 0 0 0.25 0" type="matrix" in="shadowBlurOuter1" result="shadowMatrixOuter1"></feColorMatrix>
            <feMerge>
                <feMergeNode in="shadowMatrixOuter1"></feMergeNode>
                <feMergeNode in="SourceGraphic"></feMergeNode>
            </feMerge>
        </filter>
        <path d="M345.356152,55 L345.356,113.393 L371.344219,87.4057808 L382.625626,98.6871872 L337.125626,144.187187 L292,99.0615615 L303.375,87.6865615 L329.269,113.582 L329.269473,55 L345.356152,55 Z" id="path-2"></path>
        <filter x="-7.7%" y="-5.6%" width="115.4%" height="115.7%" filterUnits="objectBoundingBox" id="filter-3">
            <feOffset dx="0" dy="2" in="SourceAlpha" result="shadowOffsetOuter1"></feOffset>
            <feGaussianBlur stdDeviation="2" in="shadowOffsetOuter1" result="shadowBlurOuter1"></feGaussianBlur>
            <feColorMatrix values="0 0 0 0 0   0 0 0 0 0   0 0 0 0 0  0 0 0 0.5 0" type="matrix" in="shadowBlurOuter1"></feColorMatrix>
        </filter>
    </defs>
    <g id="logotype-dark" stroke="none" stroke-width="1" fill="none" fill-rule="evenodd">
        <g id="logo/horizontal" filter="url(#filter-1)" transform="translate(21.000000, 37.000000)">
            <path d="M16.8970448,85.8109339 L16.8970448,49.2669704 C16.8970448,42.5289294 21.1808027,38.0501139 26.813151,38.0501139 C32.3661704,38.0501139 36.0946263,41.8551253 36.0946263,47.8400911 L36.0946263,85.8109339 L52.4760336,85.8109339 L52.4760336,48.6328018 C52.4760336,42.3307517 56.0854963,38.0501139 62.2334821,38.0501139 C67.6278438,38.0501139 71.6736151,41.4191344 71.6736151,48.1968109 L71.6736151,85.8109339 L88.5309955,85.8109339 L88.5309955,44.867426 C88.5309955,31.6687927 80.6774395,24.138041 69.3334141,24.138041 C60.4089185,24.138041 53.4676442,28.6961276 50.9687855,35.6719818 L50.3341547,35.6719818 C48.3905979,28.6168565 42.1632833,24.138041 33.7940897,24.138041 C25.5835538,24.138041 19.3562392,28.4979499 16.817716,35.6719818 L16.1037564,35.6719818 L16.1037564,24.9307517 L0,24.9307517 L0,85.8109339 L16.8970448,85.8109339 Z M106.357415,17.0829157 C111.394796,17.0829157 115.519897,13.2382688 115.519897,8.52164009 C115.519897,3.84464692 111.394796,0 106.357415,0 C101.359697,0 97.2345969,3.84464692 97.2345969,8.52164009 C97.2345969,13.2382688 101.359697,17.0829157 106.357415,17.0829157 Z M114.766272,85.8109339 L114.766272,24.9307517 L97.8692277,24.9307517 L97.8692277,85.8109339 L114.766272,85.8109339 Z M151.790205,87 C168.012954,87 178.206712,77.4874715 179,63.4961276 L163.054901,63.4961276 C162.063291,69.9963554 157.779533,73.6428246 151.988527,73.6428246 C144.095306,73.6428246 138.978596,67.0236902 138.978596,55.3708428 C138.978596,43.8765376 144.134971,37.2970387 151.988527,37.2970387 C158.176177,37.2970387 162.14262,41.3794989 163.054901,47.4437358 L179,47.4437358 C178.28604,33.3731207 167.61631,24.138041 151.710876,24.138041 C133.227254,24.138041 121.8039,36.9403189 121.8039,55.608656 C121.8039,74.118451 133.028932,87 151.790205,87 Z" id="mic" fill="#FFFFFF" fill-rule="nonzero"></path>
            <g id="Combined-Shape">
                <use fill="black" fill-opacity="1" filter="url(#filter-3)" xlink:href="#path-2"></use>
                <use fill="#FFFFFF" fill-rule="evenodd" xlink:href="#path-2"></use>
            </g>
            <path d="M337,24 C356.882251,24 373,40.1288838 373,60.0248702 C373,74.9514602 363.928175,87.7577483 351.000874,93.2237833 L351.000511,76.9709292 C355.886231,72.935759 359,66.8315094 359,60 C359,47.8497355 349.150264,38 337,38 C324.849736,38 315,47.8497355 315,60 C315,66.8319732 318.114192,72.9365878 323.000484,76.971751 L323.000122,93.2242045 C310.072291,87.7584061 301,74.9518436 301,60.0248702 C301,40.1288838 317.117749,24 337,24 Z" id="Combined-Shape" fill="#B50E0E" fill-rule="nonzero"></path>
            <path d="M214.819154,88.1615854 C224.69901,88.1615854 229.838128,82.4939024 232.188578,77.4207317 L232.905664,77.4207317 L232.905664,87.1707317 L249.637678,87.1707317 L249.637678,6 L232.706474,6 L232.706474,36.5182927 L232.188578,36.5182927 C229.917805,31.5640244 225.017715,25.5 214.779316,25.5 C201.353867,25.5 190,35.8841463 190,56.8109756 C190,77.1829268 200.875809,88.1615854 214.819154,88.1615854 Z M220.197301,74.7256098 C211.871132,74.7256098 207.329586,67.3536585 207.329586,56.7317073 C207.329586,46.1890244 211.791456,38.9359756 220.197301,38.9359756 C228.443794,38.9359756 233.065017,45.8719512 233.065017,56.7317073 C233.065017,67.5914634 228.364118,74.7256098 220.197301,74.7256098 Z M276.505714,87.1707317 L276.505714,52.7286585 C276.505714,45.2378049 282.003376,40.0853659 289.492944,40.0853659 C291.843394,40.0853659 295.070282,40.4817073 296.663807,40.9969512 L296.663807,26.0152439 C295.149958,25.6585366 293.038538,25.4207317 291.325498,25.4207317 C284.47334,25.4207317 278.856164,29.3841463 276.625229,36.9146341 L275.987819,36.9146341 L275.987819,26.2926829 L259.534672,26.2926829 L259.534672,87.1707317 L276.505714,87.1707317 Z M400.293526,110 L400.293526,77.4207317 L400.811422,77.4207317 C403.161872,82.4939024 408.30099,88.1615854 418.180846,88.1615854 C432.124191,88.1615854 443,77.1829268 443,56.8109756 C443,35.8841463 431.646133,25.5 418.220684,25.5 C407.982285,25.5 403.082195,31.5640244 400.811422,36.5182927 L400.054498,36.5182927 L400.054498,26.2926829 L383.322484,26.2926829 L383.322484,110 L400.293526,110 Z M412.802699,74.7256098 C404.635882,74.7256098 399.934983,67.5914634 399.934983,56.7317073 C399.934983,45.8719512 404.556206,38.9359756 412.802699,38.9359756 C421.208544,38.9359756 425.670414,46.1890244 425.670414,56.7317073 C425.670414,67.3536585 421.128868,74.7256098 412.802699,74.7256098 Z" id="drop" fill="#B50E0E" fill-rule="nonzero"></path>
        </g>
    </g>
</svg>
