<?xml version="1.0" encoding="UTF-8"?>
<svg width="768px" height="328px" viewBox="0 0 768 328" version="1.1" xmlns="http://www.w3.org/2000/svg" xmlns:xlink="http://www.w3.org/1999/xlink">
    <!-- Generator: Sketch 62 (91390) - https://sketch.com -->
    <title>page-header</title>
    <desc>Created with Sketch.</desc>
    <g id="page-header" stroke="none" stroke-width="1" fill="none" fill-rule="evenodd">
        <rect fill="#FFFBF7" x="0" y="0" width="768" height="328"></rect>
        <rect id="Rectangle" fill="#990811" transform="translate(480.554890, -99.856058) scale(-1, 1) rotate(-15.000000) translate(-480.554890, 99.856058) " x="15.0548905" y="-373.856058" width="931" height="548"></rect>
        <path d="M92.6626128,141.043264 C106.057486,141.043264 113.191713,134.054634 113.191713,124.561745 C113.191713,115.7386 106.872827,110.40977 100.088032,110.089458 L100.088032,109.507072 C106.290441,108.109346 110.862169,103.712333 110.862169,96.6945844 C110.862169,87.7549623 104.222971,81.406957 91.0610518,81.406957 L67.1832337,81.406957 L67.1832337,141.043264 L92.6626128,141.043264 Z M89.1391787,106.362189 L79.7918864,106.362189 L79.7918864,91.5987086 L89.372133,91.5987086 C94.9630367,91.5987086 98.1370394,94.4815184 98.1370394,98.7911734 C98.1370394,103.508498 94.2932931,106.362189 89.1391787,106.362189 Z M90.070996,130.735035 L79.7918864,130.735035 L79.7918864,114.894141 L90.3621889,114.894141 C96.4190013,114.894141 100.17539,118.388456 100.17539,123.309616 C100.17539,127.793987 97.1178642,130.735035 90.070996,130.735035 Z M129.10831,141.043264 L129.10831,115.7386 C129.10831,110.235054 133.126772,106.449547 138.601199,106.449547 C140.319237,106.449547 142.6779,106.74074 143.842671,107.11929 L143.842671,96.1121986 C142.736138,95.850125 141.192816,95.6754093 139.940686,95.6754093 C134.932168,95.6754093 130.826348,98.5873383 129.195668,104.120003 L128.729759,104.120003 L128.729759,96.3160337 L116.703493,96.3160337 L116.703493,141.043264 L129.10831,141.043264 Z M152.013518,90.5504142 C155.711668,90.5504142 158.740074,87.725843 158.740074,84.2606474 C158.740074,80.8245712 155.711668,78 152.013518,78 C148.344487,78 145.316081,80.8245712 145.316081,84.2606474 C145.316081,87.725843 148.344487,90.5504142 152.013518,90.5504142 Z M158.186807,141.043264 L158.186807,96.3160337 L145.78199,96.3160337 L145.78199,141.043264 L158.186807,141.043264 Z M176.054367,141.043264 L176.054367,115.185334 C176.083486,109.419714 179.519563,106.041877 184.528081,106.041877 C189.507479,106.041877 192.506766,109.303237 192.477647,114.777664 L192.477647,141.043264 L204.882465,141.043264 L204.882465,112.564598 C204.882465,102.139892 198.767414,95.7336479 189.449241,95.7336479 C182.810043,95.7336479 178.00536,98.9950084 175.996129,104.207361 L175.471981,104.207361 L175.471981,96.3160337 L163.649549,96.3160337 L163.649549,141.043264 L176.054367,141.043264 Z M230.350187,158.456599 C243.133555,158.456599 252.218774,152.632741 252.218774,141.480053 L252.218774,96.3160337 L239.901314,96.3160337 L239.901314,103.828811 L239.435405,103.828811 C237.775606,100.188899 234.135694,95.7336479 226.652037,95.7336479 C216.838836,95.7336479 208.539838,103.362902 208.539838,118.592291 C208.539838,133.472248 216.605881,140.402639 226.681156,140.402639 C233.815382,140.402639 237.804725,136.820967 239.435405,133.122817 L239.959552,133.122817 L239.959552,141.305337 C239.959552,147.158315 236.028448,149.546097 230.641379,149.546097 C225.166953,149.546097 222.40062,147.158315 221.381445,144.741414 L209.908445,146.284736 C211.393529,153.040411 218.2948,158.456599 230.350187,158.456599 Z M230.61226,131.084466 C224.526328,131.084466 221.206729,126.250664 221.206729,118.534052 C221.206729,110.933917 224.46809,105.605087 230.61226,105.605087 C236.639953,105.605087 240.017791,110.700963 240.017791,118.534052 C240.017791,126.42538 236.581715,131.084466 230.61226,131.084466 Z M263.913072,90.5504142 C267.611222,90.5504142 270.639628,87.725843 270.639628,84.2606474 C270.639628,80.8245712 267.611222,78 263.913072,78 C260.244041,78 257.215635,80.8245712 257.215635,84.2606474 C257.215635,87.725843 260.244041,90.5504142 263.913072,90.5504142 Z M270.086362,141.043264 L270.086362,96.3160337 L257.681544,96.3160337 L257.681544,141.043264 L270.086362,141.043264 Z M287.953921,141.043264 L287.953921,115.185334 C287.983041,109.419714 291.419117,106.041877 296.427635,106.041877 C301.407034,106.041877 304.40632,109.303237 304.377201,114.777664 L304.377201,141.043264 L316.782019,141.043264 L316.782019,112.564598 C316.782019,102.139892 310.666968,95.7336479 301.348795,95.7336479 C294.709597,95.7336479 289.904914,98.9950084 287.895683,104.207361 L287.371536,104.207361 L287.371536,96.3160337 L275.549104,96.3160337 L275.549104,141.043264 L287.953921,141.043264 Z M342.249741,158.456599 C355.033109,158.456599 364.118328,152.632741 364.118328,141.480053 L364.118328,96.3160337 L351.800868,96.3160337 L351.800868,103.828811 L351.334959,103.828811 C349.67516,100.188899 346.035248,95.7336479 338.551591,95.7336479 C328.73839,95.7336479 320.439392,103.362902 320.439392,118.592291 C320.439392,133.472248 328.505436,140.402639 338.58071,140.402639 C345.714936,140.402639 349.704279,136.820967 351.334959,133.122817 L351.859107,133.122817 L351.859107,141.305337 C351.859107,147.158315 347.928002,149.546097 342.540934,149.546097 C337.066507,149.546097 334.300174,147.158315 333.280999,144.741414 L321.807999,146.284736 C323.293083,153.040411 330.194355,158.456599 342.249741,158.456599 Z M342.511814,131.084466 C336.425883,131.084466 333.106284,126.250664 333.106284,118.534052 C333.106284,110.933917 336.367644,105.605087 342.511814,105.605087 C348.539507,105.605087 351.917345,110.700963 351.917345,118.534052 C351.917345,126.42538 348.481269,131.084466 342.511814,131.084466 Z M404.366962,141.916842 C417.936552,141.916842 426.381146,132.627789 426.381146,118.854364 C426.381146,104.993582 417.936552,95.7336479 404.366962,95.7336479 C390.797373,95.7336479 382.352779,104.993582 382.352779,118.854364 C382.352779,132.627789 390.797373,141.916842 404.366962,141.916842 Z M404.425201,132.307477 C398.164554,132.307477 394.961432,126.570976 394.961432,118.767007 C394.961432,110.963037 398.164554,105.197417 404.425201,105.197417 C410.569371,105.197417 413.772493,110.963037 413.772493,118.767007 C413.772493,126.570976 410.569371,132.307477 404.425201,132.307477 Z M442.443336,141.043264 L442.443336,115.7386 C442.443336,110.235054 446.461798,106.449547 451.936225,106.449547 C453.654263,106.449547 456.012926,106.74074 457.177697,107.11929 L457.177697,96.1121986 C456.071164,95.850125 454.527842,95.6754093 453.275712,95.6754093 C448.267194,95.6754093 444.161375,98.5873383 442.530694,104.120003 L442.064786,104.120003 L442.064786,96.3160337 L430.038519,96.3160337 L430.038519,141.043264 L442.443336,141.043264 Z M473.501943,141.771246 C480.723527,141.771246 484.479916,137.607187 486.197954,133.879918 L486.722101,133.879918 L486.722101,141.043264 L498.952203,141.043264 L498.952203,81.406957 L486.576505,81.406957 L486.576505,103.828811 L486.197954,103.828811 C484.538154,100.188899 480.956482,95.7336479 473.472824,95.7336479 C463.659623,95.7336479 455.360625,103.362902 455.360625,118.737887 C455.360625,133.705203 463.310192,141.771246 473.501943,141.771246 Z M477.433048,131.899807 C471.347116,131.899807 468.027517,126.483619 468.027517,118.679649 C468.027517,110.933917 471.288877,105.605087 477.433048,105.605087 C483.460741,105.605087 486.838578,110.700963 486.838578,118.679649 C486.838578,126.658334 483.402502,131.899807 477.433048,131.899807 Z M525.060551,141.916842 C536.125881,141.916842 543.580419,136.529774 545.327577,128.230776 L533.854576,127.473674 C532.602447,130.880631 529.399325,132.656908 525.264386,132.656908 C519.061977,132.656908 515.130872,128.551088 515.130872,121.882771 L515.130872,121.853651 L545.58965,121.853651 L545.58965,118.446694 C545.58965,103.246425 536.387954,95.7336479 524.565523,95.7336479 C511.403603,95.7336479 502.871651,105.08094 502.871651,118.883484 C502.871651,133.064578 511.287126,141.916842 525.060551,141.916842 Z M533.912815,114.166159 L515.130872,114.166159 C515.392946,109.070283 519.265812,104.993582 524.769358,104.993582 C530.156426,104.993582 533.883696,108.837329 533.912815,114.166159 Z M561.651839,141.043264 L561.651839,115.7386 C561.651839,110.235054 565.670302,106.449547 571.144728,106.449547 C572.862766,106.449547 575.221429,106.74074 576.3862,107.11929 L576.3862,96.1121986 C575.279667,95.850125 573.736345,95.6754093 572.484215,95.6754093 C567.475698,95.6754093 563.369878,98.5873383 561.739197,104.120003 L561.273289,104.120003 L561.273289,96.3160337 L549.247022,96.3160337 L549.247022,141.043264 L561.651839,141.043264 Z" id="Bringingorder" fill="#FFFBF7" fill-rule="nonzero" transform="translate(321.784717, 118.228300) rotate(15.000000) translate(-321.784717, -118.228300) "></path>
        <path d="M130.829524,213.611505 C134.032646,213.495028 136.30395,212.854404 137.55608,212.446733 L135.605087,203.215918 C134.993582,203.332396 133.683214,203.623588 132.518443,203.623588 C130.043303,203.623588 128.325265,202.691771 128.325265,199.255695 L128.325265,177.590943 L136.74074,177.590943 L136.74074,168.27277 L128.325265,168.27277 L128.325265,157.556871 L115.920447,157.556871 L115.920447,168.27277 L109.805396,168.27277 L109.805396,177.590943 L115.920447,177.590943 L115.920447,200.886375 C115.862208,209.651282 121.831663,213.990056 130.829524,213.611505 Z M160.111854,213.873579 C173.681443,213.873579 182.126037,204.584525 182.126037,190.811101 C182.126037,176.950318 173.681443,167.690384 160.111854,167.690384 C146.542265,167.690384 138.09767,176.950318 138.09767,190.811101 C138.09767,204.584525 146.542265,213.873579 160.111854,213.873579 Z M160.170092,204.264213 C153.909445,204.264213 150.706323,198.527713 150.706323,190.723743 C150.706323,182.919773 153.909445,177.154154 160.170092,177.154154 C166.314263,177.154154 169.517385,182.919773 169.517385,190.723743 C169.517385,198.527713 166.314263,204.264213 160.170092,204.264213 Z M208.01886,229.685353 C217.249675,229.685353 222.170835,224.997148 224.675094,217.833802 L242.059311,168.331009 L228.926511,168.27277 L219.579219,201.11933 L219.11331,201.11933 L209.853376,168.27277 L196.807934,168.27277 L212.852663,214.281249 L212.12468,216.174003 C210.377523,220.221584 207.378236,220.512777 203.010342,219.14417 L200.214891,228.433224 C201.991167,229.161206 204.873977,229.685353 208.01886,229.685353 Z M262.693226,213.873579 C276.262816,213.873579 284.70741,204.584525 284.70741,190.811101 C284.70741,176.950318 276.262816,167.690384 262.693226,167.690384 C249.123637,167.690384 240.679043,176.950318 240.679043,190.811101 C240.679043,204.584525 249.123637,213.873579 262.693226,213.873579 Z M262.751465,204.264213 C256.490817,204.264213 253.287695,198.527713 253.287695,190.723743 C253.287695,182.919773 256.490817,177.154154 262.751465,177.154154 C268.895635,177.154154 272.098757,182.919773 272.098757,190.723743 C272.098757,198.527713 268.895635,204.264213 262.751465,204.264213 Z M303.506814,213.582386 C310.23337,213.582386 315.067172,210.11719 317.076403,204.875718 L317.542312,204.875718 L317.542312,213 L329.452101,213 L329.452101,168.27277 L317.047284,168.27277 L317.047284,193.955984 C317.076403,199.954558 312.970583,203.099441 308.515332,203.099441 C303.827126,203.099441 300.79872,199.808961 300.7696,194.53837 L300.7696,168.27277 L288.364783,168.27277 L288.364783,196.751436 C288.393902,207.205261 294.508953,213.582386 303.506814,213.582386 Z M347.319688,213 L347.319688,187.695337 C347.319688,182.191791 351.33815,178.406283 356.812577,178.406283 C358.530615,178.406283 360.889278,178.697476 362.054049,179.076027 L362.054049,168.068935 C360.947516,167.806861 359.404194,167.632146 358.152064,167.632146 C353.143546,167.632146 349.037727,170.544075 347.407046,176.07674 L346.941138,176.07674 L346.941138,168.27277 L334.914871,168.27277 L334.914871,213 L347.319688,213 Z M390.975262,213 L390.975262,186.152014 C390.975262,181.201735 394.120146,177.911255 398.255085,177.911255 C402.331786,177.911255 405.068999,180.706707 405.068999,185.10372 L405.068999,213 L417.095266,213 L417.095266,185.686106 C417.095266,181.056138 419.745121,177.911255 424.258611,177.911255 C428.218835,177.911255 431.189002,180.386395 431.189002,185.365793 L431.189002,213 L443.564701,213 L443.564701,182.919773 C443.564701,173.223049 437.799081,167.690384 429.470964,167.690384 C422.919124,167.690384 417.823248,171.039103 415.988733,176.164098 L415.522824,176.164098 C414.095979,170.980864 409.52425,167.690384 403.38008,167.690384 C397.352387,167.690384 392.780658,170.893506 390.917024,176.164098 L390.392877,176.164098 L390.392877,168.27277 L378.570445,168.27277 L378.570445,213 L390.975262,213 Z M469.294519,213.873579 C480.359849,213.873579 487.814388,208.48651 489.561545,200.187512 L478.088545,199.430411 C476.836415,202.837368 473.633293,204.613644 469.498354,204.613644 C463.295945,204.613644 459.364841,200.507824 459.364841,193.839507 L459.364841,193.810388 L489.823619,193.810388 L489.823619,190.403431 C489.823619,175.203161 480.621923,167.690384 468.799491,167.690384 C455.637572,167.690384 447.10562,177.037676 447.10562,190.84022 C447.10562,205.021314 455.521095,213.873579 469.294519,213.873579 Z M478.146783,186.122895 L459.364841,186.122895 C459.626915,181.027019 463.49978,176.950318 469.003326,176.950318 C474.390395,176.950318 478.117664,180.794065 478.146783,186.122895 Z M513.864494,213.873579 C524.929824,213.873579 532.384362,208.48651 534.13152,200.187512 L522.658519,199.430411 C521.40639,202.837368 518.203268,204.613644 514.068329,204.613644 C507.86592,204.613644 503.934816,200.507824 503.934816,193.839507 L503.934816,193.810388 L534.393593,193.810388 L534.393593,190.403431 C534.393593,175.203161 525.191898,167.690384 513.369466,167.690384 C500.207546,167.690384 491.675594,177.037676 491.675594,190.84022 C491.675594,205.021314 500.091069,213.873579 513.864494,213.873579 Z M522.716758,186.122895 L503.934816,186.122895 C504.196889,181.027019 508.069755,176.950318 513.573301,176.950318 C518.960369,176.950318 522.687639,180.794065 522.716758,186.122895 Z M555.930209,213.611505 C559.133331,213.495028 561.404636,212.854404 562.656765,212.446733 L560.705773,203.215918 C560.094268,203.332396 558.7839,203.623588 557.619128,203.623588 C555.143988,203.623588 553.42595,202.691771 553.42595,199.255695 L553.42595,177.590943 L561.841425,177.590943 L561.841425,168.27277 L553.42595,168.27277 L553.42595,157.556871 L541.021132,157.556871 L541.021132,168.27277 L534.906081,168.27277 L534.906081,177.590943 L541.021132,177.590943 L541.021132,200.886375 C540.962894,209.651282 546.932348,213.990056 555.930209,213.611505 Z M571.701189,162.50715 C575.399339,162.50715 578.427745,159.682579 578.427745,156.217384 C578.427745,152.781307 575.399339,149.956736 571.701189,149.956736 C568.032158,149.956736 565.003752,152.781307 565.003752,156.217384 C565.003752,159.682579 568.032158,162.50715 571.701189,162.50715 Z M577.874479,213 L577.874479,168.27277 L565.469661,168.27277 L565.469661,213 L577.874479,213 Z M595.742038,213 L595.742038,187.14207 C595.771158,181.376451 599.207234,177.998613 604.215752,177.998613 C609.19515,177.998613 612.194437,181.259973 612.165318,186.7344 L612.165318,213 L624.570136,213 L624.570136,184.521334 C624.570136,174.096628 618.455085,167.690384 609.136912,167.690384 C602.497714,167.690384 597.693031,170.951745 595.6838,176.164098 L595.159653,176.164098 L595.159653,168.27277 L583.337221,168.27277 L583.337221,213 L595.742038,213 Z M650.037858,230.413336 C662.821226,230.413336 671.906445,224.589478 671.906445,213.436789 L671.906445,168.27277 L659.588985,168.27277 L659.588985,175.785547 L659.123076,175.785547 C657.463277,172.145636 653.823365,167.690384 646.339708,167.690384 C636.526507,167.690384 628.227509,175.319638 628.227509,190.549027 C628.227509,205.428984 636.293553,212.359376 646.368827,212.359376 C653.503053,212.359376 657.492396,208.777703 659.123076,205.079553 L659.647224,205.079553 L659.647224,213.262074 C659.647224,219.115051 655.716119,221.502833 650.329051,221.502833 C644.854624,221.502833 642.088291,219.115051 641.069116,216.69815 L629.596116,218.241472 C631.0812,224.997148 637.982471,230.413336 650.037858,230.413336 Z M650.299931,203.041203 C644.214,203.041203 640.894401,198.2074 640.894401,190.490789 C640.894401,182.890654 644.155761,177.561824 650.299931,177.561824 C656.327624,177.561824 659.705462,182.657699 659.705462,190.490789 C659.705462,198.382116 656.269386,203.041203 650.299931,203.041203 Z M695.685249,213.873579 C707.274726,213.873579 715.573724,207.962363 715.602843,199.139218 C715.573724,192.674735 711.351427,188.80187 702.673878,187.025593 L694.578716,185.394913 C690.414657,184.492215 688.871335,183.065369 688.900454,180.910542 C688.871335,178.231567 691.899741,176.48441 695.743487,176.48441 C700.053142,176.48441 702.61564,178.843072 703.227145,181.725882 L714.583668,181.027019 C713.477135,172.78626 706.837937,167.690384 695.539652,167.690384 C684.095771,167.690384 676.553875,172.990095 676.582994,181.609405 C676.553875,188.306842 680.776172,192.645616 689.511959,194.392773 L697.25769,195.936096 C701.159675,196.722317 702.935952,198.149162 702.994191,200.391347 C702.935952,203.041203 700.053142,204.933957 695.714368,204.933957 C691.288236,204.933957 688.347188,203.041203 687.590086,199.401291 L675.389103,200.041916 C676.553875,208.602987 683.833698,213.873579 695.685249,213.873579 Z M726.248842,213.757102 C729.976111,213.757102 733.208352,210.641337 733.237471,206.768472 C733.208352,202.953845 729.976111,199.838081 726.248842,199.838081 C722.405095,199.838081 719.231093,202.953845 719.260212,206.768472 C719.231093,210.641337 722.405095,213.757102 726.248842,213.757102 Z" id="toyourmeetings." fill="#990811" fill-rule="nonzero" transform="translate(421.521434, 190.185036) rotate(15.000000) translate(-421.521434, -190.185036) "></path>
    </g>
</svg>