<svg xmlns="http://www.w3.org/2000/svg" xmlns:xlink="http://www.w3.org/1999/xlink" width="238" height="44" viewBox="0 0 238 44">
  <defs>
    <rect id="star-rating-a" width="24" height="48" x="0" y="0"/>
  </defs>
  <g fill="none" fill-rule="evenodd">
    <polygon fill="#B50E0E" points="24 33.209 9.893 43.416 15.242 26.846 1.175 16.584 18.587 16.55 24 0 29.413 16.55 46.825 16.584 32.758 26.846 38.107 43.416" transform="translate(-1)"/>
    <polygon fill="#B50E0E" points="24 33.209 9.893 43.416 15.242 26.846 1.175 16.584 18.587 16.55 24 0 29.413 16.55 46.825 16.584 32.758 26.846 38.107 43.416" transform="translate(95)"/>
    <g transform="translate(191)">
      <path stroke="#B50E0E" d="M24,1.60837198 L29.0502793,17.0488869 L45.2957037,17.0806064 L32.1715236,26.655089 L37.1614687,42.1152076 L24,32.5920483 L10.8385313,42.1152076 L15.8284764,26.655089 L2.70429626,17.0806064 L18.9497207,17.0488869 L24,1.60837198 Z"/>
      <mask id="star-rating-b" fill="#fff">
        <use xlink:href="#star-rating-a"/>
      </mask>
      <g fill="#B50E0E" mask="url(#star-rating-b)">
        <polygon points="24 33.209 9.893 43.416 15.242 26.846 1.175 16.584 18.587 16.55 24 0 29.413 16.55 46.825 16.584 32.758 26.846 38.107 43.416"/>
      </g>
    </g>
    <polygon fill="#B50E0E" points="24 33.209 9.893 43.416 15.242 26.846 1.175 16.584 18.587 16.55 24 0 29.413 16.55 46.825 16.584 32.758 26.846 38.107 43.416" transform="translate(47)"/>
    <polygon fill="#B50E0E" points="24 33.209 9.893 43.416 15.242 26.846 1.175 16.584 18.587 16.55 24 0 29.413 16.55 46.825 16.584 32.758 26.846 38.107 43.416" transform="translate(143)"/>
  </g>
</svg>
